PathFileType	4	(X/Y/Z)	c:/Users/goper/Files/vsCode/490R/osim_files/A05/A05_Slow_02.trc
DataRate	CameraRate	NumFrames	NumMarkers	Units                	OrigDataRate	OrigDataStartFrame	OrigNumFrames
250.00	250.00	8	36	mm	250.0	1790	3578
                Frame#	Time	LPSIS			LASIS			LTH1			LTH2			LTH3			LTH4			LLFE			LMFE			LSH1			LSH2			LSH3			LSH4			LLMAL			LMMAL			LCAL			LMTP5			LTOE			LMTP1			RPSIS			RASIS			RTH1			RTH2			RTH3			RTH4			RLFE			RMFE			RSH1			RSH2			RSH3			RSH4			RLMAL			RMMAL			RCAL			RMTP1			RTOE			RMTP5		
		X1	Y1	Z1	X2	Y2	Z2	X3	Y3	Z3	X4	Y4	Z4	X5	Y5	Z5	X6	Y6	Z6	X7	Y7	Z7	X8	Y8	Z8	X9	Y9	Z9	X10	Y10	Z10	X11	Y11	Z11	X12	Y12	Z12	X13	Y13	Z13	X14	Y14	Z14	X15	Y15	Z15	X16	Y16	Z16	X17	Y17	Z17	X18	Y18	Z18	X19	Y19	Z19	X20	Y20	Z20	X21	Y21	Z21	X22	Y22	Z22	X23	Y23	Z23	X24	Y24	Z24	X25	Y25	Z25	X26	Y26	Z26	X27	Y27	Z27	X28	Y28	Z28	X29	Y29	Z29	X30	Y30	Z30	X31	Y31	Z31	X32	Y32	Z32	X33	Y33	Z33	X34	Y34	Z34	X35	Y35	Z35	X36	Y36	Z36

1790	7.15600	384.36551	1018.87646	381.82986	187.44102	950.58624	476.07407	330.95944	683.38049	515.08698	317.06491	641.55042	516.02802	270.52722	692.87762	533.89008	266.83490	650.07513	529.16669	253.20743	473.23413	500.75220	255.23140	473.91019	400.89029	289.24576	378.43466	509.63522	288.95288	332.44583	513.20874	229.17308	370.78430	497.53409	237.49802	326.35614	500.95435	269.39627	111.63280	501.08344	274.92294	115.41688	412.70859	352.39774	61.92553	455.27975	137.34279	48.67414	520.00433	91.74249	73.97204	456.88052	134.77116	65.23875	409.63272	385.95114	1022.31213	300.48102	208.84196	987.40204	179.77740	166.08911	629.93988	85.14413	149.93387	591.12799	89.33981	108.20398	647.14673	104.88509	102.25338	601.68671	107.17881	170.75185	550.09833	96.13938	140.23918	522.04474	232.04176	341.33548	370.64688	110.65208	369.99496	334.52539	122.54738	293.88400	327.49487	117.16553	333.83475	298.81366	120.79197	436.02142	246.33299	146.91510	374.78403	236.68306	227.27531	496.65137	244.33202	229.23369	342.88660	101.39489	212.34111	317.39355	92.00329	156.17433	388.09903	114.15394	104.42556
1791	7.16000	381.45071	1019.28851	381.94974	184.93779	950.51257	475.87390	329.95215	684.40027	516.56128	315.11536	641.86279	516.12146	269.66260	694.80365	533.82141	264.86765	650.31555	529.35095	251.80843	473.31497	500.81238	253.78575	474.00421	400.95529	288.07477	378.64249	509.65765	288.03391	332.69052	513.27600	228.22415	370.93076	497.70700	236.65250	326.35873	501.01306	269.23959	111.66529	501.07538	274.77081	115.50004	412.70047	352.31754	62.09845	455.28165	137.29262	48.61299	520.01636	91.24816	74.12395	456.80679	134.63268	65.08321	409.63733	383.04938	1022.77832	300.58313	206.17497	987.86908	180.28056	161.04434	630.86371	85.50215	144.67728	592.21960	89.70284	103.29538	648.56763	105.32945	97.14240	603.29114	107.52359	165.10353	551.09424	96.43410	134.93289	523.24994	232.37245	333.36868	369.11795	110.07812	361.83112	332.79431	121.96984	285.93594	326.93201	116.98995	325.23953	297.71591	120.18358	426.71664	243.51064	145.89452	365.68402	234.88449	226.63898	487.90073	240.48180	228.04170	331.44461	100.19934	211.65210	305.53250	91.45571	155.82321	376.36481	112.32938	103.63866
1792	7.16400	378.51736	1019.64050	382.12375	182.42157	950.44696	475.65820	327.61646	684.62482	516.29724	313.14560	642.16779	516.18304	267.48743	694.96033	533.83386	262.84134	650.40790	529.36749	250.38539	473.45612	500.85278	252.41898	474.19266	400.96585	286.99127	378.86368	509.70776	287.05457	332.93597	513.26337	227.01569	370.79498	497.57779	235.71416	326.39105	501.01547	269.12650	111.71897	501.12015	274.98178	115.90110	412.74408	352.26480	62.25664	455.27518	137.20874	48.50802	519.98273	91.19194	73.75040	456.39948	134.50728	64.97180	409.61804	380.20798	1023.19330	300.69098	203.42844	986.23236	183.17781	156.20012	631.88013	85.80597	139.58684	593.35590	90.03313	100.25124	651.60352	103.69023	92.02658	604.71619	107.97221	159.54883	552.06775	96.78646	129.58569	524.42023	232.66971	325.88773	367.86050	109.61887	353.51105	331.03674	121.39246	277.68704	326.22150	116.60052	315.43042	295.93060	121.59292	417.48129	240.83540	145.02135	356.63055	232.98737	226.06308	479.07559	236.42226	226.77042	319.49994	99.24237	210.59116	293.53452	90.74471	155.41393	364.46622	110.42611	102.81967
1793	7.16800	375.55658	1019.95850	382.22537	179.88766	950.39087	475.42947	325.45404	684.99725	516.36493	311.13947	642.51440	516.26172	265.29059	695.09375	533.86359	260.73944	650.55994	529.40814	248.94617	473.53549	500.87512	250.82124	474.26633	401.06213	285.83087	379.07721	509.70120	286.08170	333.15652	513.31293	226.03543	370.91727	497.73389	234.74420	326.48746	501.06021	269.00262	111.78676	501.12662	274.49481	115.65446	412.71475	352.18439	62.43916	455.29547	137.13831	48.44631	519.98608	90.92857	73.73354	456.68375	134.42305	64.88758	409.64755	377.30276	1023.54059	300.82639	200.60960	986.74548	183.40906	151.41043	632.77191	86.17337	134.41608	594.36591	90.45252	94.09119	651.41339	106.07368	87.21834	606.27692	108.25821	153.97179	552.97089	97.13647	124.22309	525.46661	232.96721	318.06021	366.36594	109.15825	344.98251	328.85031	120.89675	269.04810	325.18613	116.05748	306.71408	294.62958	121.11613	407.90994	237.81712	144.11160	347.42093	231.02713	225.46638	471.13947	233.26855	226.34900	308.04617	97.72967	210.51912	281.43179	89.98262	154.91267	352.37018	108.43299	102.02458
1794	7.17200	372.59238	1020.29309	382.34024	177.33142	950.34576	475.19052	322.83539	685.07422	515.82343	309.14517	642.80804	516.27551	263.10126	695.30835	533.88989	258.69659	650.72552	529.39764	247.48218	473.67032	500.87454	250.34999	474.93634	400.92456	284.73480	379.33804	509.72729	285.11276	333.39929	513.27643	225.00061	371.05847	497.83826	233.77750	326.61728	501.08447	268.84961	111.89012	501.14200	274.28824	115.70977	412.71115	352.28592	62.76010	455.23801	137.61827	49.00136	519.40918	90.97299	73.52660	456.41019	134.31825	64.78851	409.61383	374.47501	1023.92535	300.91443	197.77452	987.18378	183.62769	146.67522	633.61530	86.48660	129.43596	595.39484	90.74558	89.45335	652.63336	106.57718	82.24979	607.60925	108.71881	148.50784	553.83942	97.52605	118.95020	526.61627	233.22946	310.13611	364.72034	108.72379	336.59225	326.78931	120.25287	260.95050	324.46735	115.84245	296.10754	291.58273	122.42123	398.26849	234.78499	143.16025	337.97177	228.86267	224.80099	461.88046	228.88280	225.13876	296.17682	96.49184	209.99594	269.10852	89.29733	154.40356	340.14307	106.43512	101.21943
1795	7.17600	369.66299	1020.58820	382.46524	174.74815	950.31329	474.94403	320.44742	685.37109	515.50336	307.08221	643.10425	516.26007	260.82581	695.47272	533.86176	256.68008	650.85278	529.44794	246.13344	473.85510	500.89050	248.91084	475.07602	400.92923	283.64432	379.56787	509.67813	284.15414	333.62762	513.27966	223.97737	371.10522	497.80219	232.86557	326.67026	501.11533	268.75742	112.04198	501.15292	274.13278	115.81270	412.69385	351.86783	62.75087	455.29736	137.47049	48.85527	519.43988	90.75340	73.54455	456.63055	134.29326	64.74583	409.63193	371.58487	1024.25916	300.98660	194.88054	987.62231	183.76617	142.08276	634.43463	86.77144	124.53821	596.33893	91.11888	84.89369	653.93781	106.90264	77.45496	609.03558	109.02731	143.09981	554.70789	97.89157	113.67445	527.63068	233.40866	302.23679	362.95462	108.22771	328.35233	324.33493	119.55581	252.13358	323.21384	115.35716	287.91507	289.97260	121.89719	388.50229	231.62102	142.21414	328.57532	226.70288	224.19843	452.28491	224.31667	223.94096	283.69928	95.40196	208.70561	256.79483	88.52664	154.02196	327.75858	104.35384	100.45483
1796	7.18000	366.73318	1020.87146	382.56659	172.13322	950.29462	474.69269	318.14825	685.77655	515.28339	305.08179	643.42352	516.27417	258.72769	695.67999	533.87067	254.55548	650.98663	529.28058	244.58507	473.92639	500.84872	247.44644	475.15875	400.90341	282.52765	379.77893	509.71896	283.10077	333.86353	513.25134	222.86847	371.29697	497.87784	231.88379	326.71078	501.06885	268.60605	112.12463	501.17825	274.26358	116.19459	412.78564	352.02832	62.91335	455.19971	137.06898	48.85686	518.75647	90.64964	73.43981	456.61871	134.18828	64.71935	409.60574	368.70599	1024.55396	301.08008	192.11646	988.01453	183.92508	137.52377	635.24121	87.05933	119.63007	597.25714	91.47287	82.52528	656.93085	104.92844	72.81472	610.40094	109.32465	138.18861	555.50092	98.17437	108.53162	528.62695	233.66969	294.31464	361.10693	107.76497	319.86545	322.12903	119.01707	243.94266	322.28796	115.23651	279.46515	288.29846	121.37801	378.55096	228.31721	141.29747	318.80856	224.37598	223.54323	442.75436	219.66875	222.77429	271.95605	93.90865	208.79663	244.06741	87.36552	152.96616	315.26834	102.24473	99.66658
1797	7.18400	363.74976	1021.08276	382.63986	169.48195	950.29150	474.43924	315.95035	686.14709	515.28412	302.96817	643.65979	516.23065	256.62631	695.99567	533.94635	252.44595	651.11462	529.27869	243.20694	474.06970	500.86682	245.93890	475.22644	400.91034	281.41199	380.07489	509.66385	281.91895	333.97958	513.03229	221.80940	371.34625	497.86963	230.87575	326.78510	501.05624	268.43918	112.22850	501.18616	274.12167	116.29808	412.74146	351.90039	63.03239	455.16766	136.98677	48.81042	518.74054	90.56866	73.34144	456.58737	134.15508	64.66756	409.54877	365.83646	1024.82166	301.13165	189.19801	988.32263	183.93196	132.95445	635.93036	87.33941	114.98383	598.15704	91.70464	76.42415	656.38464	107.47045	68.13443	611.63422	109.64253	133.01651	556.27307	98.55048	103.40044	529.60638	233.87383	286.30292	359.15680	107.25431	311.09274	319.84363	118.44841	235.33780	321.18701	114.92297	268.93930	286.64322	121.08302	368.46713	224.91391	140.42160	309.06516	222.04318	222.94281	433.03009	214.98091	221.64816	259.59332	92.55870	208.10844	232.23712	86.15485	152.49997	302.66037	100.09428	98.91129
